<svg width="90" height="30" viewBox="0 0 90 30" fill="none" xmlns="http://www.w3.org/2000/svg">
<path d="M13.1757 29.3913C10.7956 28.9429 8.81406 27.1343 8.15746 24.8157C8.0197 24.335 7.98159 24.0008 7.98159 23.2768L7.9728 22.3388H5.9737C4.28825 22.3388 3.96875 22.3242 3.96875 22.2333C3.96875 22.1424 4.16807 21.0813 4.54913 19.0998C4.57844 18.9767 4.62534 18.8331 4.66345 18.795C4.70155 18.7334 13.3633 18.7188 32.6566 18.7334C48.0221 18.7481 61.664 18.7334 62.9742 18.71L65.3544 18.6572V9.33301V0H72.9023H80.4501L80.6319 0.281397C80.8136 0.571588 82.8362 4.00111 85.6882 8.86694C86.5412 10.3296 87.5349 12.0151 87.8925 12.6042L88.5345 13.6859V14.5858V15.4768H88.3058H88.0772V17.6049V19.7388L88.3674 19.7623L88.6488 19.7857L88.6722 20.9817L88.6869 22.1718L88.215 22.2245C87.9482 22.248 87.4294 22.2626 87.0571 22.248L86.3771 22.2245L86.2012 21.5064C85.5915 19.0207 83.7536 17.1154 81.2386 16.3357C80.629 16.1452 80.4619 16.1305 79.3099 16.1305C78.1579 16.1305 77.9909 16.1452 77.3812 16.3357C75.5667 16.8926 74.0103 18.0827 73.1104 19.5981C72.7528 20.2166 72.3776 21.1693 72.272 21.7643C72.2252 22.0164 72.1812 22.2362 72.1577 22.2597C72.1431 22.2831 60.5003 22.3125 46.278 22.3359L20.4276 22.374L20.4041 23.3267C20.3894 24.0126 20.3367 24.4405 20.2136 24.8509C19.8706 26.0703 19.1378 27.1988 18.1998 27.9932C17.5755 28.512 16.3766 29.1305 15.6291 29.3034C14.8905 29.4851 13.8675 29.5174 13.1728 29.3884L13.1757 29.3913ZM15.1045 27.1343C16.0806 26.9145 17.2091 26.0439 17.6517 25.1821C18.024 24.4347 18.1852 23.3442 18.0327 22.5733L17.9858 22.3359H16.614H15.2422L15.295 22.5118C15.4855 23.1361 15.4943 23.2358 15.4093 23.5553C15.1191 24.6457 13.6857 24.845 13.1376 23.8689C12.9236 23.4879 12.9178 22.9221 13.123 22.588L13.2754 22.3359H11.8332C10.5904 22.3359 10.3852 22.3506 10.3471 22.459C10.2709 22.6495 10.3002 23.8689 10.3852 24.2441C10.6812 25.5485 11.9475 26.8295 13.2461 27.1343C13.6564 27.2252 14.6941 27.234 15.1074 27.1343H15.1045ZM30.851 21.8728C31.2408 21.7731 31.6072 21.4389 31.7362 21.0638C31.8593 20.6915 31.789 20.0114 31.6072 19.7682C31.2936 19.3578 31.0737 19.2493 30.508 19.2493C29.8837 19.2493 29.6462 19.3871 29.3883 19.8971C28.9164 20.8205 29.4352 21.82 30.4553 21.949C30.4934 21.9578 30.6692 21.9197 30.851 21.8728ZM33.5125 21.8728C33.9551 21.7497 34.1691 21.5005 34.1691 21.096C34.1691 20.6768 33.9874 20.4863 33.3366 20.2723C32.8559 20.1052 32.6889 19.9382 32.8794 19.815C33.0611 19.7007 33.3132 19.7388 33.4275 19.9001C33.5184 20.029 33.5887 20.0525 33.8555 20.0056C34.0226 19.9763 34.1691 19.944 34.1691 19.9206C34.1691 19.9059 34.1164 19.7916 34.0548 19.6685C33.8731 19.3167 33.536 19.1819 32.9937 19.2405C32.6038 19.2786 32.4895 19.3255 32.3224 19.5161C32.0469 19.8121 32.0323 20.2108 32.2843 20.4629C32.384 20.5625 32.6507 20.7003 32.8794 20.7765C33.3454 20.9289 33.4832 21.0139 33.4832 21.1663C33.4832 21.4565 32.8501 21.48 32.7592 21.1957C32.7211 21.0813 32.6449 21.0432 32.469 21.0432C31.9883 21.0432 31.9209 21.2953 32.3019 21.6529C32.5833 21.9197 33.0406 22.0047 33.5155 21.8728H33.5125ZM40.0697 21.7438C40.7878 21.3334 40.908 20.1668 40.2983 19.5542C39.7179 18.9738 38.5982 19.135 38.2552 19.8502C38.0794 20.2225 38.094 21.0081 38.2845 21.3217C38.6363 21.9021 39.4512 22.0926 40.0697 21.7409V21.7438ZM45.636 21.735C46.0259 21.521 46.1695 21.2396 46.1988 20.6592C46.2282 20.1932 46.2076 20.0877 46.0318 19.7975C45.7738 19.349 45.4221 19.179 44.8358 19.2259C44.0649 19.2786 43.6604 19.7359 43.6604 20.5449C43.6604 21.055 43.8216 21.4155 44.1646 21.6646C44.5603 21.9607 45.1876 21.9929 45.636 21.7321V21.735ZM58.2168 21.7438C58.6126 21.5152 58.7503 21.2396 58.7796 20.6387C58.809 19.9763 58.6565 19.6392 58.2168 19.3812C57.9736 19.2376 57.8358 19.2142 57.4459 19.2376C56.6457 19.2757 56.2647 19.7037 56.2559 20.5332C56.2471 21.2426 56.5079 21.6383 57.0942 21.8522C57.4283 21.9754 57.8885 21.9285 58.2139 21.7467L58.2168 21.7438ZM60.512 21.8816C61.1451 21.7379 61.45 21.0491 61.0689 20.6299C60.9693 20.5303 60.6644 20.372 60.3742 20.2782C59.8026 20.0964 59.7176 19.9264 60.1163 19.7828C60.298 19.7213 60.3537 19.7359 60.4592 19.8825C60.5648 20.0202 60.6351 20.0437 60.8784 20.0056C61.2213 19.944 61.2507 19.7769 60.9634 19.4955C60.4768 19.009 59.3542 19.1819 59.1548 19.7769C58.9936 20.2489 59.2779 20.5918 59.9697 20.7999C60.4504 20.9436 60.6498 21.1282 60.4944 21.2807C60.342 21.4331 59.9316 21.395 59.7763 21.2132C59.5769 20.9612 59.0962 21.0081 59.0962 21.2748C59.0962 21.4888 59.3336 21.7233 59.6678 21.8464C60.0342 21.9754 60.1104 21.9754 60.5061 21.8845L60.512 21.8816ZM8.04315 21.6383C8.04315 21.5152 8.03435 20.9436 8.02849 20.3573L8.01383 19.2904H7.70899H7.40414V20.5948V21.8904L7.73244 21.8669C8.02849 21.8435 8.05194 21.8288 8.04608 21.6383H8.04315ZM9.15701 21.4624C9.15701 21.1107 9.18046 21.0432 9.29478 21.0432C9.38565 21.0432 9.45599 21.1575 9.53807 21.4477C9.64359 21.82 9.66704 21.8435 9.93378 21.8669C10.2093 21.8904 10.2093 21.8904 10.3529 21.4477C10.4438 21.1722 10.5523 20.9993 10.6285 20.9817C10.734 20.9582 10.7575 21.0286 10.7575 21.4155V21.8816H11.0623H11.3672V20.586V19.2904H10.8864H10.4057L10.224 19.9997C10.1331 20.3808 10.0247 20.7472 10.0041 20.7999C9.97482 20.8527 9.85171 20.542 9.7286 20.114L9.49996 19.3285L9.02804 19.305L8.54732 19.2816V20.586V21.8816H8.85216H9.15701V21.4624ZM12.5133 21.4712C12.5133 21.0139 12.5602 20.967 13.0321 20.967C13.3516 20.967 13.7561 20.7472 13.8851 20.501C14.0375 20.2254 13.932 19.6626 13.6945 19.4633C13.5187 19.3021 13.419 19.2874 12.7096 19.2874H11.9241L11.8713 20.5068C11.842 21.1869 11.842 21.7643 11.8625 21.8024C11.8918 21.8493 12.0443 21.8786 12.2143 21.8786H12.5103V21.4683L12.5133 21.4712ZM16.1362 21.5767V21.31L15.5647 21.2719L14.9931 21.2338L14.9696 20.2665L14.9462 19.2904H14.612H14.2691V20.586V21.8904L15.207 21.8669L16.1362 21.8435V21.5767ZM18.3845 21.6148V21.3481H17.766H17.1563L17.1798 21.1048C17.2032 20.8527 17.2032 20.8527 17.6986 20.8146C18.194 20.7765 18.194 20.7765 18.2174 20.5332L18.2409 20.2811H17.7074H17.1651V20.0525V19.8238H17.7836H18.3933L18.3698 19.5424L18.3464 19.2523L17.4318 19.2816C16.9277 19.2962 16.4939 19.3197 16.4645 19.3431C16.3883 19.3812 16.3883 21.0374 16.4499 21.5327L16.5026 21.8845H17.4406H18.3874V21.6178L18.3845 21.6148ZM19.3752 21.3481C19.3752 20.9377 19.3987 20.8146 19.4808 20.8146C19.5482 20.8146 19.6566 21.0139 19.7622 21.3481C19.938 21.8728 19.938 21.8816 20.2106 21.8816C20.4774 21.8816 20.4862 21.8728 20.6298 21.4096C20.8438 20.753 20.9728 20.7384 20.9728 21.3803V21.8845H21.3157H21.6587V20.5889V19.2933H21.1721H20.6767L20.5624 19.6978C20.5008 19.9118 20.41 20.2547 20.3572 20.4541C20.3103 20.6534 20.2429 20.8058 20.2136 20.7824C20.1843 20.7677 20.0993 20.5303 20.0318 20.2723C19.7416 19.2112 19.812 19.2962 19.2551 19.2962H18.7685V20.5918V21.8874H19.0733H19.3782V21.3539L19.3752 21.3481ZM24.0271 21.6148V21.3569L23.4408 21.3334L22.8458 21.31L22.8224 21.0667L22.7989 20.8146H23.3324H23.8747V20.5479V20.2811H23.3412H22.8077V20.0525V19.8238H23.4174H24.0271V19.5571V19.2904H23.0744H22.1218V20.586V21.8816H23.0744H24.0271V21.6148ZM25.0794 21.2953C25.1087 20.5625 25.223 20.5713 25.6422 21.31L25.9705 21.8816H26.3369H26.6945V20.586V19.2904H26.3428H25.9851L26.0233 19.9763C26.0467 20.3573 26.0379 20.6622 26.0086 20.6622C25.9793 20.6622 25.7712 20.3573 25.5425 19.9763L25.1468 19.2904H24.7746H24.4082V20.5948V21.8904L24.7364 21.8669L25.056 21.8435L25.0794 21.2953ZM28.3888 20.8762L28.4122 19.8619L28.7786 19.8385C29.1303 19.815 29.1362 19.8151 29.1362 19.5483V19.2816L28.0546 19.305L26.9642 19.3285V19.5571C26.9642 19.7769 26.9788 19.7857 27.3306 19.8092L27.6882 19.8326V20.8615V21.8845H28.0311H28.3653L28.3888 20.8791V20.8762ZM36.3646 21.4096C36.3881 20.9817 36.3939 20.967 36.602 20.967C36.7926 20.967 36.8453 21.0198 37.0212 21.4243L37.2264 21.8816H37.5693C37.7511 21.8816 37.9035 21.8669 37.9035 21.8435C37.9035 21.7145 37.5693 20.9582 37.4755 20.882C37.3759 20.797 37.3847 20.7677 37.5517 20.5918C37.795 20.3339 37.8654 20.029 37.7511 19.7447C37.5899 19.3636 37.3847 19.2874 36.4936 19.2874H35.6934V20.5918V21.8874L36.0216 21.864L36.3411 21.8405L36.3646 21.4067V21.4096ZM42.7078 21.7145C43.5402 21.2865 43.6223 19.9382 42.8455 19.4574C42.6169 19.3138 42.4557 19.2904 41.8401 19.2904H41.1073V20.586V21.8816H41.7405C42.2446 21.8816 42.441 21.8435 42.7078 21.7145ZM48.2829 20.6856C48.4969 20.0232 48.6933 19.434 48.7168 19.39C48.7402 19.3226 48.6493 19.2904 48.4031 19.2904C48.1364 19.2904 48.0455 19.3197 48.0133 19.4281C47.7612 20.3427 47.5648 20.8996 47.5267 20.8527C47.4974 20.8293 47.3655 20.4716 47.2453 20.0671L47.0079 19.3285H46.6884C46.5125 19.3285 46.3601 19.3431 46.3542 19.3666C46.3395 19.39 46.5213 19.9616 46.7499 20.6475L47.1691 21.8816H47.5267H47.8784L48.2829 20.6856ZM49.602 21.6002C49.6635 21.2279 49.6635 20.2049 49.602 19.6949L49.5492 19.2904H49.259H48.963V20.586V21.8816H49.259C49.5404 21.8816 49.5551 21.8669 49.602 21.6002ZM50.5927 21.6148C50.7071 21.3569 50.7217 21.3481 51.1262 21.3481C51.5307 21.3481 51.5454 21.3569 51.6304 21.6148C51.7154 21.8669 51.7359 21.8816 52.0584 21.8816C52.2401 21.8816 52.3925 21.8669 52.3925 21.8435C52.3925 21.8288 52.202 21.2865 51.9733 20.6534C51.7447 20.0202 51.5542 19.4486 51.5542 19.3959C51.5542 19.3197 51.4399 19.2904 51.1438 19.2904H50.7334L50.3055 20.5039C50.0681 21.1751 49.8775 21.7555 49.8775 21.7995C49.8775 21.8464 50.0153 21.8845 50.1824 21.8845C50.4579 21.8845 50.496 21.861 50.5927 21.6178V21.6148ZM53.3071 21.4624C53.3071 21.0813 53.3217 21.0432 53.4888 20.9963C53.7467 20.9348 53.8024 20.9817 53.9988 21.4624L54.1747 21.8816H54.5411H54.9075L54.8225 21.6764C54.7756 21.5621 54.6613 21.31 54.5704 21.1194L54.3945 20.7677L54.5704 20.5537C54.8371 20.2489 54.8225 19.7975 54.5323 19.5102C54.3125 19.2904 54.2949 19.2904 53.4653 19.2904H52.6182V20.586V21.8816H52.9612H53.3041V21.4624H53.3071ZM55.8601 21.1048C55.8895 20.671 55.8895 20.114 55.8689 19.8619C55.8455 19.6099 55.8308 19.3812 55.8308 19.3519C55.822 19.3138 55.6872 19.2904 55.5172 19.2904H55.2123V20.586V21.8816H55.5084H55.8045L55.8572 21.1048H55.8601ZM86.5354 14.5007C86.5266 14.4714 86.3683 14.1871 86.1924 13.8676L85.8641 13.2872L84.3633 12.8153C83.5309 12.5573 82.8303 12.3492 82.801 12.3492C82.7629 12.3492 82.7394 12.7303 82.7394 13.1876V14.0259H81.5582H80.3769V11.678C80.3769 9.95442 80.4003 9.30663 80.4677 9.23921C80.5293 9.17765 80.9016 9.14834 81.649 9.14834H82.7394V10.2006V11.2618L83.7155 11.5754C84.8059 11.9271 85.102 12.0033 85.102 11.9477C85.102 11.8949 84.4689 10.7722 83.654 9.37698C82.9212 8.12534 81.6549 5.94452 80.1394 3.31521L79.3451 1.9434L74.6698 1.91995L70.0033 1.90529V6.9382V11.9711H73.4182H76.833L77.6274 12.8944C78.07 13.4045 78.5654 13.9849 78.7325 14.19L79.0373 14.5564H82.7951C84.8704 14.5652 86.5471 14.5418 86.5324 14.5037L86.5354 14.5007Z" fill="white"/>
<path d="M30.1241 21.1576C29.9864 21.0051 29.9424 20.8762 29.9424 20.5948C29.9424 20.0701 30.1183 19.8239 30.5052 19.8239C30.895 19.8239 31.0768 20.0759 31.068 20.6006C31.0592 21.2631 30.5198 21.5767 30.1212 21.1576H30.1241Z" fill="white"/>
<path d="M39.0084 21.1575C38.6743 20.8292 38.7798 20.0144 39.1755 19.8297C39.6181 19.6304 39.9611 19.9733 39.9611 20.6241C39.9611 21.0344 39.709 21.3481 39.3895 21.3481C39.284 21.3481 39.1081 21.2631 39.0084 21.1575Z" fill="white"/>
<path d="M44.5749 21.1576C44.3609 20.9524 44.3169 20.6476 44.4224 20.1522C44.484 19.8942 44.8504 19.733 45.1318 19.8327C45.4278 19.9323 45.5597 20.2518 45.504 20.7179C45.4366 21.3217 44.9559 21.5504 44.5749 21.1605V21.1576Z" fill="white"/>
<path d="M57.1559 21.1576C57.0034 21.0139 56.9653 20.8996 56.9653 20.5713C56.9653 20.029 57.109 19.8239 57.49 19.8239C57.833 19.8239 58.0147 19.9997 58.0851 20.3808C58.2082 21.1429 57.619 21.6324 57.1559 21.1576Z" fill="white"/>
<path d="M12.5278 20.1492C12.5424 19.9118 12.5805 19.8532 12.733 19.8356C13.0525 19.7887 13.2752 19.8825 13.2752 20.073C13.2752 20.3251 13.1316 20.4306 12.7945 20.4306C12.5043 20.4306 12.5043 20.4306 12.5278 20.1492Z" fill="white"/>
<path d="M36.347 20.158C36.2796 19.8824 36.3705 19.8062 36.7281 19.8385C37.0036 19.8619 37.0241 19.8766 37.0241 20.0905C37.0241 20.3045 37.0007 20.3192 36.7105 20.3426C36.4203 20.3661 36.391 20.3514 36.3441 20.1609L36.347 20.158Z" fill="white"/>
<path d="M41.8225 21.2338C41.7991 21.1722 41.7698 20.8439 41.7698 20.4951L41.7551 19.862L41.9984 19.8385C42.1362 19.8238 42.3121 19.8532 42.3941 19.8913C42.7224 20.0671 42.7898 20.882 42.4938 21.1341C42.2945 21.31 41.8753 21.3715 41.8225 21.2338Z" fill="white"/>
<path d="M50.8655 20.7824C50.8655 20.7589 50.8948 20.6593 50.9417 20.5537C51.0326 20.3104 51.2172 20.2958 51.2759 20.5303C51.3433 20.797 51.3374 20.8117 51.0941 20.8117C50.971 20.8117 50.8655 20.797 50.8655 20.7824Z" fill="white"/>
<path d="M53.3069 20.0818V19.8151L53.6733 19.8385C53.9869 19.862 54.0309 19.8854 54.0543 20.0437C54.0925 20.2635 53.9635 20.3573 53.5971 20.3573C53.3157 20.3573 53.3069 20.3485 53.3069 20.0818Z" fill="white"/>
<path d="M78.2781 29.4001C76.0738 28.9575 74.3121 27.5242 73.4973 25.4899C72.3306 22.5704 73.5735 19.2992 76.4256 17.772C77.302 17.3001 77.8501 17.1682 79.093 17.1154C80.0544 17.0685 80.2596 17.0861 80.7931 17.2209C83.0794 17.8248 84.7971 19.6069 85.3365 21.9343C85.4742 22.5382 85.4977 22.7961 85.4596 23.5436C85.4068 24.5812 85.2778 25.1147 84.8733 25.9677C84.1024 27.5623 82.716 28.7289 80.9543 29.2301C80.1072 29.4822 79.0255 29.5438 78.2781 29.3972V29.4001ZM80.2918 27.105C81.5816 26.7621 82.5635 25.8329 83.0296 24.5197C83.267 23.8484 83.2963 22.8489 83.0912 22.1483C82.3965 19.7623 79.7584 18.6015 77.516 19.7007C76.2819 20.3104 75.4583 21.5533 75.3645 22.9632C75.2736 24.1826 75.6459 25.1821 76.5164 26.0351C77.3694 26.8822 78.1257 27.2017 79.2688 27.2105C79.603 27.2193 80.0632 27.1636 80.2918 27.105Z" fill="white"/>
<path d="M78.9025 24.4434C77.859 24.0624 77.6978 22.8283 78.6123 22.2099C78.9641 21.9724 79.6031 21.9666 79.9783 22.2011C80.2685 22.3828 80.5205 22.8489 80.5264 23.2299C80.5352 24.077 79.6734 24.7161 78.9025 24.4434Z" fill="white"/>
<path d="M57.3082 9.90167C57.2935 9.84011 57.3844 9.28318 57.5222 8.65004L57.7743 7.50686L61.3884 7.48341C63.3787 7.47462 65.0261 7.49221 65.0554 7.52152C65.0847 7.55962 65.0085 8.10776 64.8737 8.7497L64.6362 9.90753H61.1657C59.2516 9.90753 57.613 9.93098 57.5222 9.95443C57.4078 9.98374 57.3404 9.96322 57.3082 9.90167Z" fill="white"/>
<path d="M14.571 9.87819C14.571 9.80198 15.6615 7.69737 15.7377 7.63581C15.7904 7.58891 16.5994 7.54494 17.5462 7.53029L19.261 7.50684L19.4281 8.34517C19.5189 8.81123 19.6186 9.34471 19.6421 9.5499L19.6948 9.90751H17.1329C15.723 9.90751 14.571 9.89285 14.571 9.87819Z" fill="white"/>
<path d="M40.8757 9.85773C40.8845 9.81963 41.1513 9.28615 41.4708 8.653L42.057 7.50983H43.8099H45.5569L45.7621 8.6149C45.8764 9.22459 45.9761 9.76687 45.9761 9.81963C45.9849 9.88705 45.4279 9.9105 43.4288 9.9105C42.0248 9.9105 40.8757 9.88705 40.8757 9.85773Z" fill="white"/>
<path d="M0.00586244 21.9255C0.00586244 21.7584 0.967303 17.6254 2.67327 10.4264C3.05433 8.84936 3.35918 7.53617 3.35918 7.51272C3.35918 7.48927 4.13009 7.46582 5.07394 7.46582H6.78871L6.81216 9.47078C6.82095 10.57 6.82095 11.8128 6.80336 12.232C6.79457 12.6746 6.81216 12.956 6.85613 12.9179C6.89423 12.871 7.53617 11.7278 8.27484 10.3648C9.0223 8.99885 9.69941 7.79412 9.77562 7.6798L9.91925 7.46582H11.7483C13.3957 7.46582 13.5716 7.48048 13.5716 7.59479C13.5716 7.69446 13.0908 10.2182 12.4284 13.5657C12.3375 14.023 12.3903 13.9467 13.2667 12.3463L13.9673 11.0507H16.9249H19.8766L20.2284 13.2081C20.586 15.3655 20.967 17.7749 20.967 17.8658C20.967 17.8892 20.2049 17.9127 19.2669 17.9127H17.5668L17.3147 16.4412C17.177 15.641 17.0099 14.6942 16.9483 14.3513L16.834 13.7181H16.5145C16.2771 13.7181 16.1481 13.765 16.0338 13.894C15.9488 13.9849 15.4094 14.9316 14.829 15.9898L13.7767 17.9127H10.9774H8.17224L8.2719 17.4027C8.33346 17.1125 8.43312 16.6317 8.49175 16.3269C8.64417 15.6263 8.64417 15.6263 8.46243 15.6263C8.33932 15.6263 8.19569 15.855 7.75308 16.7637L7.20494 17.9068H5.93279L4.65185 17.9156V17.2297C4.65185 16.6816 4.6284 16.5438 4.53753 16.5438C4.39976 16.5438 4.3939 16.5819 3.73731 19.5102C3.45591 20.8146 3.19503 21.9109 3.16572 21.9578C3.13641 22.0047 2.54137 22.034 1.55648 22.034C0.290191 22.034 0 22.0105 0 21.9285L0.00586244 21.9255Z" fill="white"/>
<path d="M48.9075 19.6685C48.9075 19.4398 48.9221 19.3402 48.9368 19.4633C48.9514 19.5776 48.9514 19.7593 48.9368 19.8825C48.9221 19.9968 48.9075 19.8971 48.9075 19.6685Z" fill="white"/>
<path d="M88.8394 17.5726V15.7054H89.2204H89.6015V16.6053C89.6015 17.0919 89.6249 17.9332 89.6542 18.4725L89.7011 19.4398H89.2732H88.8394V17.5726Z" fill="white"/>
<path d="M22.5762 17.7485C22.538 17.6489 22.1101 16.3767 21.6235 14.9199L20.7471 12.2672L20.9142 12.0532C21.0138 11.9301 21.7085 11.0859 22.4618 10.1684C23.2181 9.25386 24.0183 8.26897 24.2382 7.98758L24.6427 7.46875H28.0751C31.361 7.46875 31.4988 7.47754 31.4988 7.61238C31.4988 7.74135 31.1939 9.32128 31.0796 9.77855L31.0269 9.98374H28.761H26.4952L26.2578 10.2358C26.1347 10.3648 25.6334 10.9686 25.1439 11.5549L24.2587 12.6365L24.6397 13.8793C24.8537 14.5652 25.0677 15.1749 25.1058 15.2277C25.1674 15.2951 25.7477 15.3186 27.5387 15.3186C29.4997 15.3186 29.8954 15.3332 29.8954 15.4241C29.8954 15.5091 29.6199 16.7812 29.4 17.7427L29.3619 17.9098H25.9998H22.6436L22.5762 17.7427V17.7485Z" fill="white"/>
<path d="M30.3528 17.7866C30.3528 17.7104 30.429 17.344 30.514 16.963C30.599 16.5907 30.9185 15.0577 31.2322 13.5686C32.2464 8.74089 32.475 7.68272 32.5512 7.60651C32.6274 7.53029 35.075 7.42477 35.2509 7.49219C35.3505 7.5215 35.3124 7.78824 35.0369 9.12488C34.8551 9.99545 34.7027 10.7195 34.7027 10.7341C34.7027 10.7429 35.075 10.7488 35.5264 10.7488H36.3501L36.7311 9.12488L37.1122 7.50977L38.6511 7.48632C40.0844 7.47167 40.19 7.47753 40.19 7.60064C40.19 7.67685 39.9144 8.97245 39.5803 10.482C39.252 11.9916 38.994 13.2344 38.9999 13.2432C39.0087 13.2579 39.2813 12.7713 39.6096 12.1616L40.2046 11.0566H43.1622C45.6625 11.0566 46.1286 11.0712 46.1579 11.1621C46.2048 11.2764 47.2777 17.6899 47.2777 17.8335C47.2777 17.9625 43.854 17.9479 43.8159 17.8247C43.7924 17.772 43.64 16.9014 43.4641 15.896C43.045 13.4865 43.1212 13.724 42.7841 13.724C42.6317 13.724 42.4411 13.7855 42.3503 13.8617C42.2066 13.9848 41.7025 14.8671 40.5652 17.0274L40.0932 17.9185H37.4317C34.946 17.9185 34.7701 17.9097 34.7701 17.7896C34.7701 17.7134 34.946 16.8985 35.1512 15.981C35.3652 15.0577 35.5323 14.2574 35.5323 14.2047C35.5323 14.0669 34.2132 14.0611 34.0989 14.2047C34.0373 14.2721 33.2459 17.7046 33.2459 17.8863C33.2459 17.901 32.5981 17.9156 31.7979 17.9156C30.47 17.9156 30.3499 17.9068 30.3499 17.7866H30.3528Z" fill="white"/>
<path d="M47.6089 17.6342C47.6558 17.344 48.2127 14.6532 49.1654 10.1391C49.4937 8.56795 49.7135 7.70617 49.7897 7.63875C49.8806 7.57133 50.5841 7.54788 52.9086 7.56254L55.9131 7.58599L56.5931 9.14833L57.279 10.7107L58.6068 10.6872C59.3397 10.6726 59.9406 10.6784 59.9406 10.7019C59.9406 10.7253 59.75 11.678 59.5214 12.8153C59.2928 13.9526 59.1022 14.8965 59.1022 14.9111C59.1022 14.9258 59.4452 14.9404 59.8643 14.9404H60.6206L60.6968 14.659C60.7349 14.4978 60.9342 13.6155 61.1306 12.6922C61.3212 11.7688 61.5117 10.9393 61.5498 10.8455C61.6113 10.6696 61.6348 10.6696 63.0359 10.6696H64.4605L64.4077 10.9598C64.3784 11.1122 64.0413 12.7361 63.6515 14.5594L62.9421 17.8775L59.2605 17.9009L55.5701 17.9156L55.617 17.5727C55.6639 17.2678 55.6463 17.2297 55.5261 17.2297C55.4353 17.2297 55.3063 17.3587 55.1832 17.5727L54.978 17.9156H51.2729H47.5679L47.6148 17.6342H47.6089ZM53.5182 15.043C53.6033 14.9199 54.0283 14.2574 54.4709 13.5569L55.2711 12.2906L54.6849 11.1386L54.1045 9.98665H52.9086H51.7126L51.6364 10.2768C51.5133 10.7488 50.6369 15.0049 50.6369 15.1339C50.6369 15.2335 50.8274 15.2482 52.0028 15.2482H53.3746L53.5182 15.043Z" fill="white"/>
<path d="M82.6868 13.1113C82.6868 12.7977 82.7014 12.6687 82.7161 12.8299C82.7307 12.9824 82.7307 13.2403 82.7161 13.4015C82.7014 13.554 82.6868 13.425 82.6868 13.1113Z" fill="white"/>
</svg>
